<svg xmlns="http://www.w3.org/2000/svg" width="83" height="112" fill="none" xmlns:v="https://vecta.io/nano"><g clip-path="url(#A)"><path d="M41.54 51.438c.191.062.393.075.59.038s.381-.122.537-.248.277-.289.354-.474.106-.386.086-.585c.02-.061-.632-6.718 2.389-9.767 1.148-1.163 2.679-1.643 4.682-1.467 3.161.281 5.582-.477 7.199-2.262 2.875-3.169 1.942-8.328 1.901-8.548a1.21 1.21 0 0 0-1.411-.97 1.21 1.21 0 0 0-.97 1.411c.017.067.754 4.222-1.304 6.491-1.083 1.19-2.834 1.688-5.195 1.481-2.733-.255-4.954.49-6.617 2.175-3.814 3.862-3.111 11.381-3.069 11.703a1.2 1.2 0 0 0 .829 1.023z" fill="#000"/><path d="M32.707 57.414l14.7 4.741 4.841-11.87-16.535-5.333-3.006 12.462z" fill="#324c93"/><path d="M32.385 58.43l14.7 4.741c.315.063.642.012.923-.143s.499-.404.614-.704l4.938-12.186c.057-.136.081-.284.07-.432s-.056-.29-.132-.417a1.12 1.12 0 0 0-.76-.525l-16.535-5.333a1.1 1.1 0 0 0-.449-.128c-.157-.01-.314.014-.461.07-.139.067-.261.163-.358.283s-.166.26-.201.41l-3.121 12.816c-.08.307-.046.634.096.918s.382.508.676.629zm14.448 1.862l-12.571-4.054 2.525-10.378 14.062 4.535-4.015 9.898z" fill="#000"/><path d="M51.046 34.144s5.399-1.991 6.787-.984 1.181 6.749 1.181 6.749 2.858-4.993 4.565-5.114 5.232 4.391 5.232 4.391-.981-5.633.233-6.831 6.854.006 6.854.006-4.415-3.662-4.245-5.387 5.258-4.399 5.258-4.399-5.749.021-6.709-1.408 1.194-6.739 1.194-6.739-4.394 3.715-6.044 3.244-3.422-5.944-3.422-5.944-.979 5.672-2.547 6.37-6.444-2.353-6.444-2.353 2.877 4.963 2.152 6.514-6.447 2.342-6.447 2.342 5.412 1.941 5.833 3.605-3.432 5.939-3.432 5.939z" fill="#fdc828"/><g fill="#000"><path d="M58.62 41.148l.041.013a1.23 1.23 0 0 0 1.392-.603c1.261-2.173 2.949-4.321 3.611-4.532l.046.015c1.014.327 3.048 2.488 4.167 3.929a1.21 1.21 0 0 0 2.113-.964c-.445-2.472-.506-5.2-.136-5.774.599-.366 3.313-.208 5.767.321a1.21 1.21 0 0 0 1.022-2.11c-1.927-1.607-3.724-3.652-3.812-4.335.211-.654 2.413-2.277 4.619-3.458a1.21 1.21 0 0 0-.539-2.284c-.03-.01-3.264.005-5.059-.574a2.29 2.29 0 0 1-.655-.295c-.242-.638.38-3.297 1.32-5.618a1.21 1.21 0 0 0-1.902-1.374c-1.916 1.62-4.242 3.036-4.931 3.004-.596-.338-1.829-2.761-2.604-5.149a1.21 1.21 0 0 0-.471-.635 1.2 1.2 0 0 0-1.488.105c-.2.183-.333.427-.377.694-.427 2.47-1.297 5.044-1.847 5.465a2.83 2.83 0 0 1-1.131-.208 23.18 23.18 0 0 1-4.177-2.058 1.21 1.21 0 0 0-1.683 1.628c1.263 2.176 2.252 4.711 2.104 5.38-.434.531-3.041 1.325-5.527 1.676-.268.036-.516.16-.705.354a1.2 1.2 0 0 0-.154 1.483c.145.228.362.402.617.491 2.361.851 4.749 2.159 5.072 2.755.01.68-1.427 2.898-3.065 4.731a1.07 1.07 0 0 0-.344.51c-.047.149-.065.306-.051.463a1.18 1.18 0 0 0 .426.807 1.19 1.19 0 0 0 .41.22l.025.008a1.14 1.14 0 0 0 .753.041c2.058-.758 4.804-1.394 5.65-1.121.417.442.763 3.24.666 5.811-.001.26.079.514.229.727s.362.374.608.461zm5.836-7.424c-.309-.103-.634-.148-.96-.13-.515.035-1.689.395-3.4 2.524-.33-2.709-1.139-3.636-1.556-3.938a2.44 2.44 0 0 0-.68-.337c-.913-.294-2.257-.168-3.555.107 1.502-2.314 1.47-3.533 1.349-4.042s-.687-1.582-3.074-2.911c2.608-.799 3.365-1.758 3.596-2.198s.506-1.672-.494-4.228l1.339.516c1.242.401 2.153.437 2.859.122.471-.212 1.429-.96 2.334-3.556.923 1.876 1.781 2.858 2.734 3.165l.071.023c.507.163 1.724.209 4.056-1.21-.612 2.662-.17 3.807.117 4.235.483.612 1.157 1.045 1.914 1.233a12.12 12.12 0 0 0 1.994.43c-2.209 1.644-2.588 2.82-2.647 3.332s.103 1.712 1.89 3.788c-2.749-.153-3.773.49-4.142.852s-1.043 1.393-.98 4.133c-.781-.819-1.722-1.469-2.764-1.91zm-5.486-5.06s1.9-.686 2.355-.36.41 2.371.41 2.371.999-1.743 1.594-1.786 1.831 1.542 1.831 1.542-.358-1.979.073-2.394 2.395 0 2.395 0-1.545-1.282-1.482-1.877 1.834-1.541 1.834-1.541-2.006.008-2.344-.488.418-2.355.418-2.355-1.537 1.295-2.111 1.132-1.197-2.065-1.197-2.065-.336 1.979-.886 2.227-2.227-.836-2.227-.836 1.014 1.732.75 2.273-2.249.814-2.249.814 1.89.682 2.034 1.26-1.198 2.082-1.198 2.082z"/></g><path d="M10.83 89.335a25.25 25.25 0 0 1 10.959-33.979 25.25 25.25 0 0 1 33.98 10.959 25.25 25.25 0 0 1-10.959 33.979 25.25 25.25 0 0 1-33.98-10.959z" fill="#324c93"/><g fill="#fff"><path d="M13.083 72.138a.8.8 0 0 0 1.006-.515 20.24 20.24 0 0 1 25.408-13.015.8.8 0 0 0 1.006-.515.8.8 0 0 0-.515-1.006c-5.499-1.767-11.474-1.281-16.614 1.352s-9.026 7.199-10.804 12.694a.8.8 0 0 0 .515 1.006z"/><path d="M12.836 72.904a1.6 1.6 0 0 0 2.011-1.03 19.41 19.41 0 0 1 24.402-12.5 1.6 1.6 0 0 0 2.011-1.03 1.6 1.6 0 0 0-1.03-2.011 22.61 22.61 0 0 0-28.424 14.561 1.6 1.6 0 0 0 1.03 2.011zM39.74 57.853c-5.297-1.702-11.053-1.234-16.005 1.303S15.04 66.09 13.326 71.383c1.716-5.292 5.459-9.688 10.41-12.224s10.706-3.006 16.003-1.307z"/></g><path d="M25.178 103.002a26.45 26.45 0 0 0 15.356.268c5.033-1.431 9.528-4.322 12.918-8.308s5.521-8.888 6.125-14.085-.347-10.457-2.733-15.114-6.098-8.502-10.669-11.048-9.794-3.681-15.009-3.259-10.188 2.381-14.29 5.629-7.149 7.64-8.755 12.619a26.48 26.48 0 0 0 17.057 33.298zm15.499-48.054c4.526 1.46 8.517 4.229 11.469 7.957a24.04 24.04 0 0 1 5.115 12.988c.383 4.74-.648 9.487-2.963 13.641a24.04 24.04 0 0 1-10.042 9.696c-4.233 2.167-9.013 3.031-13.736 2.482a24.05 24.05 0 0 1-12.8-5.568c-3.622-3.081-6.249-7.167-7.549-11.741a24.04 24.04 0 0 1 .247-13.957 24.07 24.07 0 0 1 30.26-15.497z" fill="#000"/></g><defs><clipPath id="A"><path fill="#fff" transform="matrix(-.951725 -.306952 -.306952 .951725 82.2344 16.6528)" d="M0 0h54.252v99.695H0z"/></clipPath></defs></svg>