<svg xmlns="http://www.w3.org/2000/svg" width="249" height="242" fill="none" xmlns:v="https://vecta.io/nano"><g clip-path="url(#A)"><path d="M36.375 204.97l6.839-22.481 45.281 6.515-43.984-11.891 1.138-137.562 43.516 95.057 44.71-92.602 18.477 104.38 71.093-73.691-47.719 134.576-1.628 23.372L36.375 204.97z" fill="#fdc828"/><path d="M173.375 234.521L35.652 208.848a3.95 3.95 0 0 1-1.522-.634c-.457-.317-.842-.726-1.13-1.201a3.95 3.95 0 0 1-.396-3.201l6.865-22.476a3.92 3.92 0 0 1 1.663-2.178 4.05 4.05 0 0 1-.548-2.082L41.698 39.51c-.068-.953.211-1.897.787-2.659s1.408-1.29 2.343-1.485 1.909-.044 2.741.425 1.466 1.223 1.784 2.123l39.883 87.424L130.314 40.3c.362-.751.952-1.367 1.686-1.762s1.574-.547 2.4-.434 1.594.483 2.196 1.06 1.006 1.328 1.154 2.148l17.129 96.826 65.735-68.19a3.94 3.94 0 0 1 2.365-1.246c.909-.127 1.835.066 2.617.548s1.371 1.221 1.666 2.091a3.94 3.94 0 0 1-.05 2.673l-47.596 134.064-1.584 22.845c-.039.554-.195 1.094-.458 1.584s-.625.919-1.065 1.258-.946.583-1.486.714-1.102.145-1.648.043zM41.442 201.902l129.035 24.054 1.329-19.041c0-.354.065-.704.193-1.034l41.635-117.439-58.451 60.693c-.506.519-1.144.888-1.846 1.068s-1.44.162-2.133-.05a3.95 3.95 0 0 1-1.795-1.152 3.94 3.94 0 0 1-.932-1.919l-16.359-92.348-39.293 81.626a3.92 3.92 0 0 1-3.571 2.224c-.749-.008-1.481-.228-2.111-.634s-1.131-.982-1.448-1.662L49.586 57.326l-.983 116.778 41.055 11.104c1.025.212 1.923.823 2.497 1.697s.778 1.942.566 2.967-.823 1.923-1.698 2.497-1.942.778-2.966.566l-41.917-6.048-4.698 15.015z" fill="#000"/><path d="M56.568 37.092a10.94 10.94 0 0 1 .428 4.487c-.17 1.509-.653 2.966-1.417 4.279a10.94 10.94 0 0 1-7.136 5.186 10.94 10.94 0 0 1-8.643-1.766 10.94 10.94 0 0 1-4.53-7.57c-1.258-5.879 1.461-16.448 7.345-17.732s12.67 7.231 13.954 13.115z" fill="#fdc828"/><path d="M43.167 54.016c-2.883-.537-5.544-1.914-7.647-3.957s-3.556-4.663-4.176-7.53a24.88 24.88 0 0 1 1.122-12.766c1.906-5.343 5.198-8.796 9.261-9.643s8.45.88 12.445 4.995a24.59 24.59 0 0 1 6.177 11.21 14.91 14.91 0 0 1-11.323 17.686 15.15 15.15 0 0 1-5.859.005zm1.031-26.052c-.279-.066-.569-.075-.851-.025-2.788.604-5.344 8.287-4.306 13.055a6.97 6.97 0 0 0 2.859 4.803 6.97 6.97 0 0 0 2.613 1.151c.941.199 1.913.202 2.855.007a6.97 6.97 0 0 0 4.56-3.232 6.97 6.97 0 0 0 .719-5.543c-.779-2.766-2.24-5.291-4.248-7.346a8.97 8.97 0 0 0-4.2-2.87z" fill="#000"/><path d="M146.641 40.4a10.94 10.94 0 0 1-12.649 8.225 10.94 10.94 0 0 1-6.864-4.348c-1.644-2.277-2.351-5.099-1.972-7.882 1.109-5.946 7.701-14.616 13.647-13.507s8.946 11.566 7.838 17.512z" fill="#fdc828"/><path d="M133.189 53.008a14.91 14.91 0 0 1-11.91-17.335c1.445-7.756 9.772-18.269 18.252-16.688s12.345 14.286 10.885 22.12c-.725 3.853-2.941 7.264-6.167 9.493s-7.2 3.095-11.06 2.411zm4.896-26.267c-2.844-.53-8.154 5.569-9.05 10.378a6.99 6.99 0 0 0 1.297 4.99c1.052 1.437 2.612 2.419 4.363 2.746s3.561-.027 5.06-.989 2.575-2.459 3.008-4.187c.793-4.828-1.86-12.412-4.678-12.937z" fill="#000"/><path d="M235.587 77.019a10.94 10.94 0 0 1-7.125 3.342c-2.707.191-5.389-.63-7.525-2.306s-3.571-4.084-4.03-6.76a10.94 10.94 0 0 1 1.55-7.716c3.704-4.66 13.581-9.426 18.345-5.703s2.464 14.478-1.215 19.142z" fill="#fdc828"/><path d="M224.214 84.93a14.88 14.88 0 0 1-6.801-3.235 14.89 14.89 0 0 1-5.127-13.642 14.89 14.89 0 0 1 2.987-6.914 24.8 24.8 0 0 1 10.493-7.354c5.344-1.973 10.099-1.649 13.367.913 6.795 5.306 4.58 18.483-.435 24.718a15.04 15.04 0 0 1-6.444 4.72c-2.534.964-5.282 1.225-7.953.755l-.087.037zm8.991-24.407a9.44 9.44 0 0 0-4.71.727 17.07 17.07 0 0 0-7.041 4.76c-1.13 1.462-1.639 3.311-1.415 5.146s1.163 3.507 2.612 4.654c1.463 1.136 3.317 1.645 5.155 1.416s3.51-1.178 4.65-2.638a16.8 16.8 0 0 0 2.928-7.961c.209-.954.217-1.942.022-2.9s-.587-1.864-1.152-2.661c-.301-.263-.661-.45-1.049-.543z" fill="#000"/><path d="M158.727 219.244c-.949-.147-1.811-.637-2.423-1.377a3.92 3.92 0 0 1-.895-2.639l.344-12.75 30.056-70.534a3.9 3.9 0 0 1 2.137-2.127c.479-.194.993-.291 1.511-.285s1.028.116 1.503.323c.964.404 1.727 1.174 2.124 2.14s.393 2.051-.009 3.016l-29.42 69.421-.268 11.053c-.033 1.043-.478 2.031-1.239 2.747a3.94 3.94 0 0 1-2.817 1.071l-.604-.059z" fill="#fff"/></g><defs><clipPath id="A"><path fill="#fff" transform="matrix(.983065 .183257 -.183257 .983065 37.6934 0)" d="M0 0h214.495v205.685H0z"/></clipPath></defs></svg>