<svg xmlns="http://www.w3.org/2000/svg" width="83" height="92" fill="none" xmlns:v="https://vecta.io/nano"><g clip-path="url(#A)"><path d="M36.09 1.595c15.69-1.5 31.29 5 39.34 18.49.81 1.27 1.46 2.62 2.16 3.95a37.07 37.07 0 0 1 2.26 5.94c2.46 8.8 1.16 18.06 1.51 27.08v8.9 8.84l-.12 8.88c.01 1.3-.121 2.598-.39 3.87a5 5 0 0 1-.85 2.19 2.85 2.85 0 0 1-2.035.855 2.85 2.85 0 0 1-2.035-.855c-1.09-1.09-2.06-2.26-3-3.43-.75-.89-1.47-1.81-2.28-2.64a8.48 8.48 0 0 0-3.65-2.41 3 3 0 0 0-2.6.56 11.56 11.56 0 0 0-2.67 2.56c-1.282 1.751-2.725 3.378-4.31 4.86a5.26 5.26 0 0 1-4.1 1.33 4.61 4.61 0 0 1-2.18-1c-1.349-1.188-2.554-2.531-3.59-4-.985-1.405-2.219-2.618-3.64-3.58a4.83 4.83 0 0 0-5.17-.11 9.37 9.37 0 0 0-2.93 2.88c-.93 1.27-1.74 2.63-2.75 3.85a5.66 5.66 0 0 1-2.82 2 3.62 3.62 0 0 1-2-.12 7.8 7.8 0 0 1-3.66-2.87c-1.25-1.53-2.3-3.22-3.66-4.66a5.08 5.08 0 0 0-3.08-1.74 3 3 0 0 0-1.49.2 11.73 11.73 0 0 0-3.79 2.68l-1.92 1.93-2.27 2.35a12.91 12.91 0 0 1-2 1.8 2.7 2.7 0 0 1-3.26-.27 4.9 4.9 0 0 1-1.39-2.68 25 25 0 0 1-.61-6.21v-3c0-.43 0-.89-.06-1.33-.05-2.33.1-4.66.06-7s0-4.87 0-7.31c.49-12.45-1.82-25.55 3.17-37.33.429-.703.81-1.435 1.14-2.19a39.88 39.88 0 0 1 30.67-21.26zm29.48 47.15a10.93 10.93 0 0 0 10.178-6.786 10.93 10.93 0 0 0-2.491-11.977 10.93 10.93 0 0 0-12.04-2.166 10.93 10.93 0 0 0-6.508 10.358 10.86 10.86 0 0 0 10.86 10.57zm-22.22-11a10.92 10.92 0 0 0-6.778-10.024 10.92 10.92 0 0 0-11.863 2.383 10.92 10.92 0 0 0-2.382 11.863 10.92 10.92 0 0 0 10.024 6.778 10.93 10.93 0 0 0 7.792-3.194 10.93 10.93 0 0 0 3.208-7.786v-.02z" fill="#7dce36"/><path d="M29.49 91.665c-.538-.019-1.07-.116-1.58-.29a8.86 8.86 0 0 1-4.13-3.2l-1.46-1.9a26.88 26.88 0 0 0-2.16-2.7 4 4 0 0 0-2.48-1.44 1.87 1.87 0 0 0-1 .14 10.49 10.49 0 0 0-3.46 2.46l-.66.65-1.25 1.26-1.67 1.81-.55.59A14.2 14.2 0 0 1 7 91.015a3.7 3.7 0 0 1-4.51-.33 5.83 5.83 0 0 1-1.7-3.19 26.28 26.28 0 0 1-.64-6.46v-1.18-1.87a5.08 5.08 0 0 0 0-.67v-.61-3.54-3.45-4.61-2.72c.12-3.41 0-6.91 0-10.3-.23-9.15-.46-18.62 3.22-27.35a1.06 1.06 0 0 1 .14-.36 4.4 4.4 0 0 0 .49-1c.167-.346.357-.68.57-1A40.8 40.8 0 0 1 36 .605c16.89-1.61 32.33 5.66 40.29 19 .64 1 1.19 2.08 1.73 3.12l.46.88c.877 1.784 1.597 3.641 2.15 5.55l.18.54c1.75 6.3 1.65 12.81 1.54 19.11 0 2.72-.09 5.52 0 8.25v6.29 5.33 6.11l-.06 4.52c-.06 1.52-.06 2.91-.06 4.37a18.58 18.58 0 0 1-.41 4.09 6.08 6.08 0 0 1-1.06 2.61 3.58 3.58 0 0 1-2.58 1.24c-.551.036-1.103-.046-1.62-.239a3.91 3.91 0 0 1-1.38-.881c-1.07-1.06-2-2.21-3-3.32l-.58-.8c-.58-.7-1.12-1.36-1.72-2a7.59 7.59 0 0 0-3.16-2.19 2.05 2.05 0 0 0-1.79.45 10.11 10.11 0 0 0-2.36 2.31l-.07.08-1 1.23a24.34 24.34 0 0 1-3.45 3.76 6.28 6.28 0 0 1-4.87 1.55 5.55 5.55 0 0 1-2.66-1.19c-1.172-.991-2.216-2.123-3.11-3.37-.21-.28-.43-.55-.64-.82l-.1-.13a12.64 12.64 0 0 0-3.27-3.22 3.85 3.85 0 0 0-4.17-.1 8.52 8.52 0 0 0-2.61 2.6c-.34.47-.67.95-1 1.43-.56.82-1.14 1.67-1.8 2.47a6.64 6.64 0 0 1-3.32 2.33 4.19 4.19 0 0 1-1.01.1zm-12-11.51c.16-.01.32-.01.48 0a6.16 6.16 0 0 1 3.68 2c.833.913 1.608 1.879 2.32 2.89.46.62.91 1.23 1.4 1.82a6.93 6.93 0 0 0 3.17 2.56 2.78 2.78 0 0 0 1.48.11 4.68 4.68 0 0 0 2.31-1.68 27.59 27.59 0 0 0 1.67-2.25l1-1.48a10.6 10.6 0 0 1 3.25-3.17 5.85 5.85 0 0 1 6.17.13 14.57 14.57 0 0 1 3.81 3.69l.1.13.66.84c.797 1.106 1.724 2.113 2.76 3a3.5 3.5 0 0 0 1.69.83 4.23 4.23 0 0 0 3.34-1.1 21.93 21.93 0 0 0 3.16-3.47l1-1.26.07-.08a12.32 12.32 0 0 1 2.84-2.73 4.05 4.05 0 0 1 3.42-.67 9.68 9.68 0 0 1 4 2.71c.65.67 1.25 1.4 1.83 2.1l.64.77c1 1.13 1.84 2.19 2.84 3.19a1.89 1.89 0 0 0 1.45.54 1.54 1.54 0 0 0 1.13-.5 4.1 4.1 0 0 0 .73-1.7c.251-1.2.372-2.424.36-3.65l.06-4.41c.06-1.47.06-3 .06-4.47v-6.12-5.41-6.25c-.1-2.75-.06-5.58 0-8.32.1-6.16.21-12.52-1.46-18.5l-.16-.51c-.519-1.796-1.188-3.546-2-5.23l-.47-.9c-.54-1-1-2-1.65-3C67 7.955 52.31 1.055 36.2 2.585a38.87 38.87 0 0 0-29.89 20.73 7.13 7.13 0 0 0-.43.88 6.82 6.82 0 0 1-.72 1.35c-3.5 8.33-3.27 17.56-3.05 26.49.08 3.42.17 7 .05 10.38v2.71 4.55 3.54c0 1.16-.05 2.31 0 3.45a4.36 4.36 0 0 0 0 .51c.015.293.015.587 0 .88v1.77 1.23a24.2 24.2 0 0 0 .58 6 3.92 3.92 0 0 0 1.06 2.12 1.73 1.73 0 0 0 2 .23c.665-.498 1.278-1.06 1.83-1.68l.54-.59 1.71-1.84c.42-.44.85-.87 1.28-1.3l.65-.64a12.38 12.38 0 0 1 4.12-2.9 4 4 0 0 1 1.52-.3h.04zm15-30.4h-.17a12 12 0 0 1-11.8-11.59 11.79 11.79 0 0 1 3.48-8.79 11.91 11.91 0 0 1 12.979-2.622 11.91 11.91 0 0 1 7.382 10.992 11.66 11.66 0 0 1-3.44 8.46 11.94 11.94 0 0 1-8.44 3.55h.01zm0-21.87a9.91 9.91 0 0 0-7.07 2.92 9.77 9.77 0 0 0-2.9 7.29 9.94 9.94 0 0 0 6.282 8.971 9.94 9.94 0 0 0 10.718-2.251 9.65 9.65 0 0 0 2.86-7 10 10 0 0 0-9.54-9.87l-.35-.06zm33.21 21.86h-.14a11.93 11.93 0 0 1-10.957-7.405 11.93 11.93 0 0 1 2.607-12.965 12 12 0 0 1 8.84-3.47 11.82 11.82 0 0 1 11.52 11.87 11.86 11.86 0 0 1-3.427 8.481 11.86 11.86 0 0 1-8.443 3.52v-.03zm-.07-21.86a9.93 9.93 0 0 0-9.96 9.9 9.93 9.93 0 0 0 9.9 9.96h.13a9.93 9.93 0 0 0 9.802-9.779A9.93 9.93 0 0 0 66 27.895l-.37-.01z" fill="#000"/><path d="M65.57 48.745a10.93 10.93 0 0 1-10.041-6.779 10.93 10.93 0 0 1 2.383-11.879 10.93 10.93 0 0 1 11.879-2.383 10.93 10.93 0 0 1 6.779 10.041 10.89 10.89 0 0 1-3.189 7.811 10.89 10.89 0 0 1-7.811 3.189zm-.66-10.92a5 5 0 0 0 3.037 4.593 5 5 0 0 0 5.418-.985 5 5 0 0 0 1.227-5.368 5 5 0 0 0-4.452-3.241 5 5 0 0 0-3.685 1.381 5 5 0 0 0-1.545 3.619z" fill="#fdfdfd"/><path d="M65.7 48.995h-.13a11.26 11.26 0 0 1-11.195-11.292 11.26 11.26 0 0 1 11.26-11.227 11.26 11.26 0 0 1 11.26 11.228A11.26 11.26 0 0 1 65.7 48.995zm-.07-21.86a10.68 10.68 0 0 0-10.71 10.65 10.68 10.68 0 0 0 10.65 10.71A10.68 10.68 0 0 0 76.217 38.03 10.68 10.68 0 0 0 66 27.145l-.37-.01zm4.28 15.94a5.17 5.17 0 0 1-3.733-1.51 5.17 5.17 0 0 1-1.517-3.73 5.24 5.24 0 0 1 3.212-4.831 5.24 5.24 0 0 1 5.698 1.092 5.24 5.24 0 0 1 1.199 5.676A5.24 5.24 0 0 1 70 43.075h-.09zm0-10a4.74 4.74 0 0 0-3.355 1.392 4.74 4.74 0 0 0-1.385 3.358 4.68 4.68 0 0 0 1.37 3.38 4.68 4.68 0 0 0 3.38 1.37 4.75 4.75 0 0 0 4.641-4.659 4.75 4.75 0 0 0-4.461-4.831l-.19-.01z" fill="#000"/><path d="M43.35 37.765a10.92 10.92 0 0 1-6.814 10.151 10.92 10.92 0 0 1-11.96-2.532 10.92 10.92 0 0 1-2.116-12.041 10.92 10.92 0 0 1 10.38-6.458 10.87 10.87 0 0 1 10.51 10.88zm-6.61-4.92a5 5 0 0 0-4.691 3.169 5 5 0 0 0 1.273 5.516 5 5 0 0 0 5.605.792 5 5 0 0 0 2.752-4.947 4.95 4.95 0 0 0-4.94-4.53z" fill="#fdfdfd"/><g fill="#000"><path d="M32.48 49.005h-.16a11.2 11.2 0 0 1-11.06-10.87 11 11 0 0 1 3.26-8.21 11.16 11.16 0 0 1 19.08 7.84 10.91 10.91 0 0 1-3.22 7.93 11.21 11.21 0 0 1-7.9 3.31zm0-21.87a10.68 10.68 0 1 0-.15 21.36h.15a10.71 10.71 0 0 0 7.52-3.12 10.41 10.41 0 0 0 3.08-7.58 10.73 10.73 0 0 0-10.25-10.66h-.35zm4.25 15.94a5.26 5.26 0 0 1-3.65-9.049 5 5 0 0 1 3.66-1.43 5.21 5.21 0 0 1 5.19 4.78 5.2 5.2 0 0 1-5.2 5.73v-.03zm-.19-10a4.44 4.44 0 0 0-3.11 1.3 4.74 4.74 0 0 0-1.43 3.46 4.68 4.68 0 0 0 4.76 4.74 4.74 4.74 0 0 0 3.45-1.48 4.84 4.84 0 0 0 1.22-3.72 4.68 4.68 0 0 0-4.68-4.28h-.21v-.02zm28.37 4.75a5 5 0 1 1 10 0 5 5 0 1 1-10 0z"/><path d="M69.91 43.375a5.5 5.5 0 0 1-5.37-5.63 5.5 5.5 0 0 1 5.63-5.37 5.5 5.5 0 0 1-.17 11h-.09zm0-10a4.46 4.46 0 0 0-3.12 1.27 4.4 4.4 0 0 0-1.019 1.468c-.236.554-.355 1.15-.351 1.752a4.44 4.44 0 0 0 4.58 4.51 4.4 4.4 0 0 0 4.44-4.53 4.48 4.48 0 0 0-4.32-4.47h-.21zm-33.17-.53a5 5 0 0 1 3.535 8.536 5 5 0 0 1-8.536-3.535 4.93 4.93 0 0 1 5.001-5z"/><path d="M36.73 43.375a5.51 5.51 0 0 1-5.11-3.451 5.51 5.51 0 0 1 1.29-6.029 5.13 5.13 0 0 1 3.84-1.52h.09a5.46 5.46 0 0 1 5.34 5 5.57 5.57 0 0 1-1.46 4.29 5.5 5.5 0 0 1-3.99 1.71zm-.19-10a4.2 4.2 0 0 0-2.93 1.22 4.51 4.51 0 0 0-1.08 4.949 4.51 4.51 0 0 0 4.2 2.831 4.51 4.51 0 0 0 3.27-1.45 4.6 4.6 0 0 0 1.18-3.55 4.38 4.38 0 0 0-4.43-4h-.21z"/></g><path d="M70 18.175c-.781-.994-1.651-1.915-2.6-2.75l-2.82-2.38a61.7 61.7 0 0 0-6-4.17 30.69 30.69 0 0 0-14.45-4.41 43.76 43.76 0 0 0-7.46.21 78.97 78.97 0 0 0-3.66.53 25.72 25.72 0 0 0-3.71 1 36.08 36.08 0 0 0-12.45 8 1 1 0 0 0-.017 1.296 1 1 0 0 0 1.277.224c4.66-3.35 8.4-5.44 12.16-6.58 1.063-.323 2.15-.564 3.25-.72a72.18 72.18 0 0 1 3.48-.38 46.71 46.71 0 0 1 6.92-.1 30.69 30.69 0 0 1 13 3.7c2 1.06 3.92 2.24 6 3.64a39 39 0 0 1 5.54 4.22 1.02 1.02 0 0 0 .313.244c.119.06.249.096.383.106s.267-.007.394-.049a1.02 1.02 0 0 0 .345-.196c.101-.087.184-.194.244-.313s.096-.249.106-.383-.007-.267-.049-.394-.109-.244-.196-.345z" fill="#fff"/></g><defs><clipPath id="A"><path fill="#fff" transform="translate(0 .375)" d="M0 0h82.4v91.29H0z"/></clipPath></defs></svg>