<svg xmlns="http://www.w3.org/2000/svg" width="152" height="154" fill="none" xmlns:v="https://vecta.io/nano"><g clip-path="url(#A)"><path d="M81.542 57.17h25.858l5.45-39.521c.31-2.284 1.068-4.485 2.23-6.476a17.53 17.53 0 0 1 4.542-5.128c1.837-1.394 3.93-2.413 6.162-2.998a17.55 17.55 0 0 1 6.84-.41l1.76.247c2.285.31 4.487 1.067 6.48 2.228a17.54 17.54 0 0 1 5.131 4.539c1.395 1.835 2.414 3.928 2.999 6.157a17.51 17.51 0 0 1 .41 6.836l-12.123 87.92s-2.951 40.894-32.714 40.894H47.509c-29.763 0-32.702-40.84-32.713-40.894L2.672 22.645a17.52 17.52 0 0 1 .41-6.836c.585-2.229 1.604-4.322 3-6.157a17.54 17.54 0 0 1 5.131-4.539 17.55 17.55 0 0 1 6.48-2.228l1.77-.247c2.284-.313 4.608-.172 6.837.413s4.322 1.604 6.158 2.998 3.378 3.136 4.539 5.126a17.52 17.52 0 0 1 2.229 6.473l5.45 39.521h36.865z" fill="#fdc828"/><path d="M104.491 153.999H47.509c-31.115 0-35.02-40.84-35.213-43.134L.193 23.019c-.36-2.606-.203-5.258.463-7.804a20.02 20.02 0 0 1 3.417-7.032 20.04 20.04 0 0 1 5.851-5.189A20.05 20.05 0 0 1 17.317.439l1.759-.247c2.612-.359 5.269-.201 7.82.467a20.06 20.06 0 0 1 7.044 3.425c2.1 1.593 3.864 3.585 5.193 5.861a20.03 20.03 0 0 1 2.55 7.402l5.15 37.334h58.313l5.139-37.355a20.06 20.06 0 0 1 7.745-13.251c4.237-3.217 9.578-4.621 14.851-3.904l1.781.247c2.613.351 5.131 1.214 7.41 2.539s4.273 3.088 5.868 5.187 2.759 4.49 3.427 7.04a19.99 19.99 0 0 1 .461 7.815l-12.124 87.867c-.225 2.562-4.12 43.134-35.213 43.134zM21.877 4.963a16.93 16.93 0 0 0-2.071.139l-1.803.257a15.03 15.03 0 0 0-5.558 1.906c-1.709.995-3.204 2.317-4.401 3.891s-2.07 3.369-2.57 5.281a15 15 0 0 0-.346 5.862l12.113 87.92v.161c.129 1.576 3.423 38.599 30.213 38.599h57.036c26.823 0 30.096-37.001 30.214-38.599v-.161l12.124-87.92a15.01 15.01 0 0 0-.341-5.851c-.497-1.909-1.366-3.701-2.556-5.275a15.03 15.03 0 0 0-9.925-5.815l-1.781-.247a15.03 15.03 0 0 0-5.863.349c-1.912.501-3.706 1.374-5.28 2.569s-2.897 2.689-3.892 4.396-1.642 3.594-1.906 5.552l-5.44 39.521c-.088.597-.387 1.142-.845 1.536a2.51 2.51 0 0 1-1.644.609H44.644a2.5 2.5 0 0 1-2.478-2.144l-5.45-39.511a15.01 15.01 0 0 0-5.004-9.281c-2.736-2.387-6.245-3.703-9.877-3.703l.043-.043z" fill="#000"/><path d="M57.905 45.065h-1.781a17.54 17.54 0 0 0-17.542 17.53v38.395a17.54 17.54 0 0 0 17.542 17.531h1.781a17.54 17.54 0 0 0 17.542-17.531V62.595a17.54 17.54 0 0 0-17.542-17.53z" fill="#fdc828"/><path d="M57.937 121.019h-1.813c-5.314-.006-10.408-2.118-14.166-5.872s-5.871-8.846-5.876-14.157V62.595c.003-5.312 2.115-10.406 5.873-14.163a20.07 20.07 0 0 1 14.169-5.876h1.813a20.08 20.08 0 0 1 14.152 5.887c3.753 3.756 5.863 8.845 5.868 14.152v38.395c-.006 5.307-2.116 10.395-5.869 14.149a20.07 20.07 0 0 1-14.152 5.88zm-1.813-73.456c-3.984 0-7.804 1.581-10.621 4.397s-4.4 6.633-4.4 10.614v38.416c0 3.982 1.583 7.8 4.4 10.615s6.638 4.396 10.621 4.396h1.813c3.984 0 7.804-1.581 10.621-4.396s4.4-6.633 4.4-10.615V62.595c0-3.981-1.582-7.799-4.4-10.614s-6.637-4.396-10.621-4.396l-1.813-.022z" fill="#000"/><path d="M94.771 45.065h-1.781a17.54 17.54 0 0 0-17.542 17.53v38.395a17.54 17.54 0 0 0 17.542 17.531h1.781a17.54 17.54 0 0 0 17.543-17.531V62.595a17.54 17.54 0 0 0-17.543-17.53z" fill="#fdc828"/><path d="M94.781 121.019h-1.792a20.07 20.07 0 0 1-14.159-5.876c-3.755-3.755-5.867-8.844-5.873-14.153V62.595c.003-5.31 2.114-10.402 5.869-14.159a20.07 20.07 0 0 1 14.163-5.88h1.792a20.07 20.07 0 0 1 14.156 5.884c3.753 3.757 5.862 8.847 5.865 14.156v38.395c-.006 5.307-2.116 10.395-5.869 14.149a20.07 20.07 0 0 1-14.152 5.88zm-1.792-73.456c-3.984 0-7.804 1.581-10.621 4.397s-4.399 6.633-4.399 10.614v38.416c0 3.982 1.583 7.8 4.399 10.615s6.638 4.396 10.621 4.396h1.792c3.984 0 7.805-1.581 10.621-4.396s4.4-6.633 4.4-10.615V62.595c0-3.981-1.583-7.799-4.4-10.614s-6.637-4.396-10.621-4.396l-1.792-.022z" fill="#000"/><path d="M76.477 111.509c-3.245-3.332-5.033-7.815-4.971-12.464s1.97-9.083 5.304-12.326l1.277-1.244a17.55 17.55 0 0 1 12.472-4.968c4.652.062 9.089 1.969 12.334 5.3l26.823 27.513a17.52 17.52 0 0 1 4.971 12.463c-.062 4.649-1.97 9.083-5.303 12.326l-1.299 1.276a17.55 17.55 0 0 1-24.806-.333l-26.801-27.544z" fill="#fdc828"/><path d="M115.875 146.891c-2.678.007-5.331-.525-7.799-1.563s-4.702-2.564-6.568-4.484l-26.823-27.513c-1.841-1.888-3.29-4.12-4.266-6.569a20.02 20.02 0 0 1 .227-15.36c1.047-2.419 2.562-4.608 4.458-6.441l1.277-1.244c1.887-1.836 4.117-3.283 6.563-4.258s5.061-1.459 7.694-1.424 5.234.588 7.653 1.627a20.05 20.05 0 0 1 6.448 4.43l26.823 27.512c3.701 3.813 5.739 8.937 5.666 14.249a20.06 20.06 0 0 1-6.053 14.089l-1.351 1.244c-3.726 3.648-8.732 5.696-13.948 5.704zM90.318 83.042c-3.92.008-7.682 1.547-10.482 4.289l-1.277 1.254c-2.842 2.783-4.463 6.579-4.508 10.555s1.492 7.808 4.272 10.653l26.823 27.513a15.04 15.04 0 0 0 4.832 3.329c1.814.781 3.765 1.197 5.74 1.224s3.937-.336 5.771-1.067a15.02 15.02 0 0 0 4.922-3.197l1.276-1.243a15.02 15.02 0 0 0 4.557-10.566 14.98 14.98 0 0 0-1.069-5.767 14.99 14.99 0 0 0-3.198-4.918l-26.823-27.513c-1.375-1.419-3.018-2.552-4.834-3.332s-3.769-1.193-5.745-1.214h-.257z" fill="#000"/></g><defs><clipPath id="A"><path fill="#fff" d="M0 0h152v154H0z"/></clipPath></defs></svg>