<svg xmlns="http://www.w3.org/2000/svg" width="100" height="123" fill="none" xmlns:v="https://vecta.io/nano"><g clip-path="url(#A)"><path d="M50.006 104.351c54.2 0 48.442-56.951 48.442-56.951s-12-46.077-34.955-46.077c-5.505 0-13.487 3.309-13.487 3.309s-7.993-3.309-13.498-3.309c-22.955 0-34.999 46.099-34.999 46.099s-5.714 56.929 48.497 56.929z" fill="#e22f22"/><path d="M50.005 105.674c-15.887 0-28.295-4.819-36.882-14.337C-2.29 74.243.088 48.327.198 47.224a1.25 1.25 0 0 1 0-.199C.737 45.15 12.804 0 36.507 0c4.954 0 11.626 2.426 13.498 3.154C51.877 2.426 58.538 0 63.492 0c23.704 0 35.781 45.15 36.332 47.069a.63.63 0 0 1 0 .199c.11 1.103 2.511 26.987-12.925 44.114-8.609 9.474-21.017 14.293-36.893 14.293zM2.807 47.632C2.664 49.407.902 73.89 15.094 89.595c8.059 8.911 19.817 13.444 34.911 13.444s26.852-4.533 34.911-13.466c14.169-15.683 12.43-40.166 12.276-41.941-.65-2.415-12.529-44.985-33.7-44.985-5.175 0-12.914 3.121-12.991 3.154-.319.121-.672.121-.991 0-.088 0-7.828-3.154-13.002-3.154-21.182 0-33.04 42.57-33.7 44.985z" fill="#000"/><path d="M52.097 9.749s.617-.375 1.751-.926c1.568-.773 3.191-1.429 4.855-1.963 1.128-.377 2.284-.665 3.457-.86.33 0 .649-.088 1.002-.11h.253.804.98c.341 0 .727.121 1.101.187.753.124 1.491.327 2.202.607a12.17 12.17 0 0 1 2.048.926c.66.342 1.266.794 1.916 1.191l1.739 1.401 1.607 1.544 1.475 1.621a41.14 41.14 0 0 1 2.543 3.386l2.048 3.309 1.607 3.11 1.982 4.83.628 1.875-3.93-5.955-1.949-2.801-2.202-3.033-1.31-1.544-1.332-1.522-1.398-1.478-1.497-1.379-1.563-1.268c-.529-.408-1.101-.772-1.651-1.103-1.067-.619-2.211-1.094-3.402-1.412-.273-.093-.553-.167-.837-.221l-.969-.121-.473-.066h-.121s-.11 0 0 0h-.264-.859l-3.303.375-5.031.982-1.905.419z" fill="#fff"/><g fill="#000"><path d="M50.005 24.34a35.89 35.89 0 0 0 7.233-.992 12.85 12.85 0 0 1 6.999.363 12.87 12.87 0 0 1 5.772 3.983c3.889 4.764 8.46 8.926 13.564 12.352 6.187 4.07 10.657 7.312 12.21 9.021-9.116 20.954-29.363 33.769-45.8 33.769S13.311 69.975 4.195 49.065c1.585-1.709 6.055-4.93 12.232-9.021 5.104-3.426 9.674-7.588 13.564-12.352a12.87 12.87 0 0 1 5.772-3.983 12.85 12.85 0 0 1 6.999-.363 35.88 35.88 0 0 0 7.244.992z"/><path d="M50.006 84.158c-15.876 0-37.124-11.878-47.022-34.53-.101-.235-.133-.495-.09-.747s.158-.487.332-.675c1.552-1.709 5.582-4.731 12.474-9.264 4.995-3.371 9.469-7.458 13.278-12.131 1.328-1.618 3-2.92 4.892-3.811s3.96-1.348 6.051-1.34a14.29 14.29 0 0 1 3.127.397c2.28.562 4.612.883 6.958.96a33.69 33.69 0 0 0 6.947-.96 14.29 14.29 0 0 1 3.138-.353 14.07 14.07 0 0 1 6.045 1.342c1.891.891 3.56 2.192 4.887 3.808a61.36 61.36 0 0 0 13.289 12.131c6.837 4.533 10.921 7.555 12.463 9.231.171.187.285.42.328.67s.013.508-.086.741c-9.887 22.652-31.135 34.53-47.011 34.53zM5.769 49.363c9.501 20.888 29.726 32.148 44.237 32.148s34.768-11.26 44.226-32.148c-3.619-2.975-7.421-5.719-11.384-8.216a64.11 64.11 0 0 1-13.861-12.616c-1.081-1.314-2.44-2.37-3.978-3.093s-3.218-1.094-4.918-1.087c-.863-.002-1.723.091-2.565.276a35.4 35.4 0 0 1-7.52 1.037 35.4 35.4 0 0 1-7.531-1.037c-.839-.185-1.695-.277-2.554-.276-1.701-.008-3.383.362-4.923 1.085s-2.901 1.78-3.984 3.095c-3.968 4.873-8.64 9.125-13.861 12.616a111.62 111.62 0 0 0-11.384 8.216z"/></g><path d="M50.005 35.853V24.34a38.47 38.47 0 0 1-8.323-1.246 10.85 10.85 0 0 0-7.784 1.103v11.602c.022 2.404 16.107 2.239 16.107.055z" fill="#fefefe"/><path d="M41.837 38.864c-9.281 0-9.281-2.338-9.281-3.11V24.163a1.36 1.36 0 0 1 .185-.676c.12-.205.291-.375.497-.493 2.665-1.459 5.773-1.883 8.731-1.191a36.54 36.54 0 0 0 8.015 1.213c.173 0 .344.034.504.101a1.31 1.31 0 0 1 .71.717c.065.16.098.332.096.506v11.514c0 1.875-2.631 2.371-3.622 2.548a32.65 32.65 0 0 1-5.835.463zm-6.606-3.474c.65.331 2.752.827 6.606.827a21.37 21.37 0 0 0 6.804-.794v-9.804c-2.467-.213-4.912-.63-7.31-1.246-2.061-.485-4.224-.276-6.154.596l.055 10.422z" fill="#000"/><path d="M33.877 35.534v-11.37c-1.239.684-2.331 1.606-3.215 2.713-2.931 3.677-6.254 7.024-9.909 9.981 4.338.871 13.123.32 13.123-1.323z" fill="#fefefe"/><path d="M25.817 38.6a29 29 0 0 1-5.318-.43 1.32 1.32 0 0 1-.651-.345c-.18-.174-.307-.397-.366-.641s-.047-.499.033-.737.227-.447.422-.605c3.581-2.891 6.831-6.172 9.688-9.782a11.92 11.92 0 0 1 3.611-3.033c.199-.116.425-.177.655-.177s.456.061.655.177c.191.115.351.276.464.469s.177.41.185.634v11.415c0 1.886-2.62 2.382-3.611 2.581-1.905.33-3.836.489-5.769.474zm-1.883-2.691c.606 0 1.233.055 1.883.055a20.65 20.65 0 0 0 6.738-.827v-8.382a11.81 11.81 0 0 0-.87.948c-2.339 2.953-4.933 5.695-7.751 8.194v.011z" fill="#000"/><path d="M66.058 35.754V24.152a10.86 10.86 0 0 0-7.784-1.103c-2.721.717-5.512 1.135-8.323 1.246v11.558c.055 2.184 16.107 2.349 16.107-.099z" fill="#fefefe"/><path d="M58.131 38.864c-9.446 0-9.446-2.272-9.446-3.011V24.34c0-.351.139-.688.387-.936a1.32 1.32 0 0 1 .934-.388 36.54 36.54 0 0 0 8.015-1.213c2.954-.696 6.06-.272 8.72 1.191.208.116.38.286.5.491s.183.439.182.678v11.591c0 1.974-2.686 2.47-3.567 2.647a31.17 31.17 0 0 1-5.725.463zm-6.815-3.441a21.4 21.4 0 0 0 6.815.794c3.875 0 5.989-.496 6.606-.827V24.968a9.62 9.62 0 0 0-6.154-.595c-2.402.617-4.851 1.034-7.321 1.246l.055 9.804z" fill="#000"/><path d="M79.269 36.857a63.76 63.76 0 0 1-9.909-9.926 10.84 10.84 0 0 0-3.226-2.713v11.315c-.011 1.654 8.731 2.195 13.135 1.323z" fill="#fefefe"/><path d="M74.183 38.6c-6.22 0-9.38-1.026-9.38-3.044V24.163a1.35 1.35 0 0 1 .185-.634c.113-.192.273-.354.464-.469a1.32 1.32 0 0 1 1.31 0 11.97 11.97 0 0 1 3.611 3.044 62.18 62.18 0 0 0 9.7 9.782c.195.158.341.369.421.607s.091.495.031.739-.188.466-.37.64a1.32 1.32 0 0 1-.655.341 28.91 28.91 0 0 1-5.318.386zm-6.738-3.463a20.71 20.71 0 0 0 6.738.827l1.883-.055a64.37 64.37 0 0 1-7.707-8.205 10.09 10.09 0 0 0-.87-.948l-.044 8.382z" fill="#000"/><path d="M77.485 47.422c-12.243-7.72-27.524 1.754-27.524 1.754s-15.237-9.517-27.524-1.754-11.714 16.543-8.907 37.497c3.996 29.777 24.728 36.758 36.475 36.758s32.467-6.981 36.464-36.758c2.819-20.954 3.248-29.777-8.984-37.497z" fill="#ff608d"/><g fill="#000"><path d="M50.005 123c-15.083 0-34.031-9.926-37.785-37.894-2.807-20.954-3.501-30.56 9.6-38.853 3.49-2.181 7.535-3.306 11.648-3.242a36 36 0 0 1 16.514 4.588c5.056-2.839 10.721-4.413 16.514-4.588 4.121-.069 8.173 1.057 11.67 3.242 13.101 8.293 12.408 17.899 9.6 38.853C84.025 113.074 65.078 123 50.005 123zM33.491 45.636a18.79 18.79 0 0 0-10.261 2.89c-11.274 7.102-11.285 14.668-8.389 36.228 3.523 26.281 21.138 35.611 35.165 35.611s31.631-9.33 35.165-35.61c2.906-21.561 2.906-29.126-8.389-36.228-3.074-1.913-6.632-2.9-10.25-2.845-8.367 0-15.755 4.555-15.832 4.599a1.33 1.33 0 0 1-1.398 0c-.066-.088-7.465-4.643-15.832-4.643h.022z"/><path d="M51.316 49.121l-1.31 50.334-1.321-50.334c.019-.331.161-.642.398-.873a1.32 1.32 0 0 1 1.785-.052c.25.217.41.519.448.848v.077zM29.274 15.528a13.29 13.29 0 0 0 1.674 1.577c1.324 1.028 2.761 1.901 4.283 2.603a25.14 25.14 0 0 0 4.646 1.632c.639.187 1.189.276 1.574.353l.594.121c.345.07.647.275.841.568a1.33 1.33 0 0 1-.374 1.84c-.293.194-.651.264-.996.194-.076-.012-.15-.034-.22-.066l-.562-.232-1.607-.673c-1.599-.721-3.129-1.589-4.569-2.592a23.14 23.14 0 0 1-3.864-3.452 12.42 12.42 0 0 1-1.42-1.875zM18.881 27.351a8.62 8.62 0 0 0 1.552.596c1.141.348 2.331.505 3.523.463a9.56 9.56 0 0 0 1.816-.22 7.7 7.7 0 0 0 .804-.21 4.93 4.93 0 0 0 .694-.254 7.71 7.71 0 0 0 .98-.463l.363-.187h.088c.314-.164.68-.196 1.018-.09s.619.343.783.658a1.34 1.34 0 0 1 .089 1.019c-.106.338-.342.62-.656.784-.095.046-.195.083-.297.11l-.506.121c-.437.118-.882.203-1.332.254a5.41 5.41 0 0 1-.881.088 7.38 7.38 0 0 1-.991 0c-.707-.015-1.411-.097-2.103-.243a12.02 12.02 0 0 1-3.556-1.412 8.78 8.78 0 0 1-1.387-1.015zm51.844-11.823a12.73 12.73 0 0 1-1.365 1.875 22.91 22.91 0 0 1-3.875 3.452c-1.439 1.005-2.968 1.873-4.569 2.592l-1.607.673-.617.243a1.31 1.31 0 0 1-1.439-.303 1.31 1.31 0 0 1-.279-.436 1.34 1.34 0 0 1 .012-1.018 1.33 1.33 0 0 1 .726-.713l.22-.066h.066l.606-.121 1.574-.353c1.597-.394 3.153-.941 4.646-1.632a22.23 22.23 0 0 0 4.25-2.603 13.25 13.25 0 0 0 1.651-1.588zM81.13 27.351c-.436.366-.903.69-1.398.971a11.9 11.9 0 0 1-3.556 1.456c-.688.149-1.388.234-2.092.254a7.38 7.38 0 0 1-.991 0 5.56 5.56 0 0 1-.892-.088 9 9 0 0 1-1.332-.254l-.495-.121a1.33 1.33 0 0 1-.49-.208c-.148-.102-.274-.232-.37-.384s-.161-.321-.191-.498a1.34 1.34 0 0 1 .02-.533c.042-.175.119-.339.227-.483s.242-.265.397-.355a1.33 1.33 0 0 1 1.035-.131.87.87 0 0 1 .297.11h.088l.363.188c.318.179.65.334.991.463a5.51 5.51 0 0 0 .683.254c.264.084.532.154.804.209a9.52 9.52 0 0 0 1.817.221 10.75 10.75 0 0 0 3.523-.463 9 9 0 0 0 1.563-.607z"/></g></g><defs><clipPath id="A"><path fill="#fff" d="M0 0h100v123H0z"/></clipPath></defs></svg>