<svg xmlns="http://www.w3.org/2000/svg" width="69" height="77" fill="none" xmlns:v="https://vecta.io/nano"><g clip-path="url(#A)"><path d="M38.779 1.029C25.641-.236 12.578 5.247 5.837 16.625c-.678 1.071-1.223 2.21-1.809 3.332a31.4 31.4 0 0 0-1.892 5.01C.075 32.39 1.164 40.2.871 47.808v7.507 7.456l.1 7.49a15.29 15.29 0 0 0 .327 3.264c.088.664.332 1.297.712 1.847.222.228.487.41.78.533a2.37 2.37 0 0 0 1.848 0c.293-.124.558-.305.78-.533.913-.919 1.725-1.906 2.512-2.893.628-.751 1.231-1.527 1.909-2.227a7.1 7.1 0 0 1 3.056-2.033c.375-.095.766-.102 1.143-.02s.731.251 1.034.493a9.71 9.71 0 0 1 2.236 2.159c1.074 1.477 2.282 2.849 3.609 4.099.461.421 1.006.738 1.597.931s1.218.258 1.836.19a3.85 3.85 0 0 0 1.826-.843c1.13-1.003 2.139-2.135 3.006-3.374a11.83 11.83 0 0 1 3.048-3.02c.639-.427 1.385-.663 2.151-.679s1.522.187 2.178.586a7.87 7.87 0 0 1 2.453 2.429c.779 1.071 1.457 2.218 2.303 3.247a4.74 4.74 0 0 0 2.361 1.687 3.01 3.01 0 0 0 1.675-.101 6.54 6.54 0 0 0 3.065-2.421c1.047-1.291 1.926-2.716 3.065-3.931.657-.785 1.573-1.305 2.579-1.468.423-.051.853.007 1.248.169 1.197.533 2.276 1.302 3.174 2.26l1.608 1.628 1.901 1.982c.504.564 1.066 1.072 1.675 1.518a2.25 2.25 0 0 0 1.403.35c.493-.041.959-.244 1.327-.578.615-.611 1.022-1.402 1.164-2.261a21.24 21.24 0 0 0 .511-5.238v-2.53c0-.363 0-.751.05-1.122.042-1.965-.084-3.931-.05-5.904s0-4.108 0-6.166c-.41-10.501 1.524-21.55-2.654-31.487a15.28 15.28 0 0 1-.955-1.847c-2.504-4.872-6.154-9.053-10.63-12.179a33.25 33.25 0 0 0-15.052-5.753zM14.093 40.799c-1.825.011-3.612-.529-5.131-1.548s-2.7-2.474-3.392-4.175a9.28 9.28 0 0 1-.492-5.372 9.24 9.24 0 0 1 2.577-4.729 9.13 9.13 0 0 1 4.763-2.467 9.09 9.09 0 0 1 5.318.64 9.17 9.17 0 0 1 4.052 3.528 9.27 9.27 0 0 1 1.398 5.208 9.19 9.19 0 0 1-2.748 6.32 9.06 9.06 0 0 1-6.346 2.596zM32.7 31.521c.013-1.816.559-3.587 1.569-5.091a9.16 9.16 0 0 1 4.107-3.363c1.668-.689 3.501-.865 5.269-.508s3.391 1.233 4.666 2.518a9.23 9.23 0 0 1 2.499 4.699 9.27 9.27 0 0 1-.504 5.307c-.684 1.68-1.845 3.119-3.339 4.137a9.1 9.1 0 0 1-5.055 1.58c-1.21.008-2.41-.226-3.53-.689a9.15 9.15 0 0 1-2.994-2.005c-.857-.861-1.535-1.885-1.996-3.012s-.696-2.336-.69-3.555v-.017z" fill="#ef4f2b"/><path d="M44.305 77.001c.45-.016.896-.098 1.323-.245 1.396-.529 2.601-1.47 3.458-2.699l1.223-1.603c.554-.797 1.158-1.558 1.809-2.277.519-.65 1.259-1.082 2.077-1.215.285-.039.574.002.837.118 1.096.486 2.082 1.192 2.897 2.075l.553.548 1.047 1.063 1.398 1.527.461.498c.526.612 1.112 1.169 1.75 1.662a3.08 3.08 0 0 0 1.935.51c.683-.05 1.331-.328 1.841-.788a4.93 4.93 0 0 0 1.424-2.691 22.32 22.32 0 0 0 .536-5.449v-.995-1.577c-.012-.188-.012-.377 0-.565v-.514-2.986-2.91-3.888-2.294-8.688c.193-7.718.385-15.705-2.696-23.069a.9.9 0 0 0-.117-.304 3.72 3.72 0 0 1-.41-.843c-.14-.292-.299-.574-.477-.843-2.564-4.993-6.304-9.278-10.892-12.479S44.396.857 38.854.195C24.711-1.163 11.781 4.969 5.116 16.22c-.536.843-.996 1.754-1.449 2.632l-.385.742a28.8 28.8 0 0 0-1.8 4.681l-.151.455C-.134 30.045-.051 35.536.041 40.85c0 2.294.075 4.656 0 6.959v5.305 4.496 5.154l.05 3.813c.05 1.282.05 2.454.05 3.686a15.78 15.78 0 0 0 .343 3.45 5.15 5.15 0 0 0 .888 2.201 3 3 0 0 0 .972.75 2.98 2.98 0 0 0 1.189.296 3.25 3.25 0 0 0 1.356-.201 3.27 3.27 0 0 0 1.156-.743c.896-.894 1.675-1.864 2.512-2.8l.486-.675c.486-.59.938-1.147 1.44-1.687.71-.834 1.621-1.47 2.646-1.847.262-.059.534-.056.794.01a1.71 1.71 0 0 1 .705.369c.76.536 1.428 1.194 1.976 1.948l.059.067.837 1.037a20.48 20.48 0 0 0 2.889 3.171 5.25 5.25 0 0 0 1.901 1.09 5.22 5.22 0 0 0 2.177.217 4.63 4.63 0 0 0 2.227-1.004c.981-.836 1.856-1.79 2.604-2.843.176-.236.36-.464.536-.692l.084-.11c.741-1.066 1.669-1.986 2.738-2.716a3.21 3.21 0 0 1 1.734-.56c.619-.015 1.23.15 1.758.475a7.16 7.16 0 0 1 2.186 2.193c.285.396.561.801.837 1.206.469.692.955 1.409 1.507 2.083a5.56 5.56 0 0 0 2.78 1.965c.277.063.561.091.846.084zm10.049-9.708c-.134-.008-.268-.008-.402 0a5.15 5.15 0 0 0-3.082 1.687c-.698.77-1.347 1.585-1.943 2.438-.385.523-.762 1.037-1.172 1.535a5.81 5.81 0 0 1-2.654 2.159 2.31 2.31 0 0 1-1.239.093 3.92 3.92 0 0 1-1.934-1.417 23.25 23.25 0 0 1-1.398-1.898l-.837-1.248c-.705-1.079-1.633-1.991-2.721-2.674a4.87 4.87 0 0 0-5.167.11c-1.244.832-2.325 1.887-3.19 3.112l-.084.11-.553.709a14.42 14.42 0 0 1-2.311 2.53 2.92 2.92 0 0 1-1.415.7 3.52 3.52 0 0 1-1.499-.157 3.54 3.54 0 0 1-1.298-.77c-.983-.877-1.87-1.859-2.646-2.927l-.837-1.063-.059-.068a10.35 10.35 0 0 0-2.378-2.303 3.38 3.38 0 0 0-1.368-.609 3.37 3.37 0 0 0-1.495.044c-1.29.465-2.443 1.251-3.349 2.286-.544.565-1.047 1.181-1.532 1.771l-.536.65c-.837.953-1.541 1.847-2.378 2.691a1.58 1.58 0 0 1-.559.359c-.209.079-.433.112-.655.097a1.28 1.28 0 0 1-.517-.111 1.29 1.29 0 0 1-.429-.311 3.47 3.47 0 0 1-.611-1.434 14.44 14.44 0 0 1-.301-3.079l-.05-3.72c-.05-1.24-.05-2.53-.05-3.77v-5.162-4.563-5.272c.084-2.319.05-4.706 0-7.018-.084-5.196-.176-10.56 1.223-15.604l.134-.43c.435-1.515.995-2.991 1.675-4.411l.394-.759c.452-.843.837-1.687 1.382-2.53 6.389-10.67 18.69-16.49 32.18-15.199a32.41 32.41 0 0 1 14.67 5.611c4.363 3.048 7.919 7.124 10.359 11.874.137.239.257.487.36.742a5.77 5.77 0 0 0 .603 1.139c2.931 7.026 2.738 14.811 2.554 22.343-.067 2.885-.142 5.904-.042 8.755v2.286 3.838 2.986c0 .978.042 1.948 0 2.91.008.143.008.287 0 .43a7.35 7.35 0 0 0 0 .742v1.493 1.037c.048 1.701-.115 3.401-.486 5.061-.106.674-.416 1.299-.888 1.788-.224.204-.506.333-.806.368a1.44 1.44 0 0 1-.868-.174 10.45 10.45 0 0 1-1.532-1.417l-.452-.498-1.432-1.552c-.352-.371-.712-.734-1.072-1.097l-.544-.54c-.971-1.045-2.146-1.877-3.45-2.446a3.33 3.33 0 0 0-1.273-.253h-.033zM41.793 41.651h.142c2.578-.042 5.041-1.08 6.88-2.899s2.914-4.281 3.001-6.877a10.01 10.01 0 0 0-.687-4.014 9.95 9.95 0 0 0-2.227-3.4 9.95 9.95 0 0 0-5.101-2.767c-1.935-.394-3.942-.2-5.767.555a9.99 9.99 0 0 0-4.488 3.691c-1.1 1.65-1.69 3.593-1.694 5.581-.021 1.323.223 2.638.718 3.864a9.84 9.84 0 0 0 2.163 3.272c.925.943 2.025 1.693 3.238 2.207s2.514.782 3.83.788h-.008zm0-18.447c1.1-.005 2.189.21 3.206.633s1.939 1.045 2.715 1.83c.805.8 1.436 1.76 1.854 2.818s.614 2.192.575 3.331c-.045 1.642-.567 3.234-1.502 4.579s-2.242 2.384-3.758 2.988-3.175.746-4.77.408-3.057-1.139-4.204-2.306a8.14 8.14 0 0 1-1.796-2.706 8.19 8.19 0 0 1-.599-3.198c.026-2.152.867-4.213 2.352-5.761s3.502-2.465 5.636-2.564l.293-.051zM13.984 41.642h.117a9.94 9.94 0 0 0 5.526-1.725c1.633-1.111 2.903-2.684 3.65-4.521a10.13 10.13 0 0 0 .55-5.8c-.389-1.946-1.34-3.732-2.734-5.135a10.04 10.04 0 0 0-3.401-2.232c-1.273-.503-2.634-.739-4.001-.694-2.588.066-5.048 1.152-6.852 3.023a10.01 10.01 0 0 0-2.795 6.989 10.07 10.07 0 0 0 .723 3.866 10.01 10.01 0 0 0 2.147 3.287 9.93 9.93 0 0 0 3.239 2.198 9.87 9.87 0 0 0 3.83.77v-.025zm.059-18.438c2.205-.007 4.323.869 5.887 2.435s2.447 3.694 2.453 5.915-.863 4.354-2.418 5.93-3.667 2.464-5.872 2.471h-.109c-2.165-.028-4.234-.905-5.767-2.446s-2.409-3.622-2.441-5.803a8.41 8.41 0 0 1 2.266-5.874 8.29 8.29 0 0 1 5.691-2.62l.31-.008z" fill="#000"/><path d="M14.093 40.799c1.805-.012 3.567-.561 5.063-1.578s2.66-2.458 3.346-4.14a9.28 9.28 0 0 0 .507-5.314 9.24 9.24 0 0 0-2.502-4.706c-1.277-1.286-2.902-2.163-4.672-2.52a9.09 9.09 0 0 0-5.275.51c-1.67.691-3.1 1.863-4.11 3.37s-1.555 3.281-1.567 5.1c-.012 1.222.218 2.434.676 3.565a9.19 9.19 0 0 0 1.994 3.023c.858.864 1.878 1.547 3.001 2.009a9.06 9.06 0 0 0 3.54.681zm.553-9.211a4.24 4.24 0 0 1-.694 2.322c-.452.689-1.095 1.229-1.849 1.553a4.16 4.16 0 0 1-2.392.271c-.806-.148-1.552-.531-2.145-1.101s-1.006-1.304-1.188-2.109-.127-1.646.161-2.419.794-1.444 1.457-1.93a4.17 4.17 0 0 1 2.271-.803 4.16 4.16 0 0 1 1.661.264c.53.2 1.015.507 1.424.901a4.22 4.22 0 0 1 .958 1.393c.222.525.337 1.089.336 1.66z" fill="#fdfdfd"/><path d="M13.984 41.01h.109c2.496-.014 4.884-1.025 6.642-2.811s2.74-4.2 2.733-6.714-1.004-4.923-2.771-6.698-4.162-2.772-6.658-2.772-4.89.997-6.658 2.772-2.764 4.184-2.771 6.698.976 4.929 2.733 6.714 4.146 2.796 6.642 2.811zm.059-18.438a8.91 8.91 0 0 1 6.331 2.621 9.04 9.04 0 0 1 2.637 6.362c.007 2.389-.929 4.683-2.602 6.377a8.91 8.91 0 0 1-6.317 2.656 8.91 8.91 0 0 1-6.243-2.584 9.04 9.04 0 0 1-2.672-6.243c-.047-2.353.822-4.63 2.421-6.346s3.801-2.733 6.135-2.835l.31-.008zm-3.584 13.445a4.3 4.3 0 0 0 1.691-.318c.537-.219 1.025-.544 1.435-.956s.734-.903.952-1.443.327-1.119.319-1.703a4.44 4.44 0 0 0-.734-2.447c-.479-.725-1.159-1.291-1.956-1.628a4.36 4.36 0 0 0-2.524-.265c-.849.164-1.631.576-2.248 1.186a4.43 4.43 0 0 0-1.22 2.241 4.45 4.45 0 0 0 .216 2.546c.319.809.869 1.505 1.579 2.001s1.55.769 2.414.785h.075zm0-8.435c.522 0 1.039.104 1.521.305s.92.497 1.289.869a4 4 0 0 1 .86 1.3c.199.486.301 1.007.3 1.533.008.528-.09 1.053-.287 1.543a3.95 3.95 0 0 1-.861 1.308c-.371.374-.813.668-1.299.867s-1.007.297-1.531.289c-1.026-.024-2.003-.446-2.727-1.178a4.02 4.02 0 0 1-1.159-2.752c-.019-1.033.358-2.034 1.054-2.794s1.657-1.219 2.681-1.281l.159-.008z" fill="#000"/><path d="M32.7 31.538a9.26 9.26 0 0 0 1.552 5.161 9.16 9.16 0 0 0 4.154 3.401c1.691.691 3.547.857 5.332.476s3.416-1.29 4.683-2.612 2.114-2.995 2.429-4.805a9.27 9.27 0 0 0-.657-5.351 9.19 9.19 0 0 0-3.518-4.064c-1.549-.971-3.351-1.453-5.174-1.384-2.363.079-4.603 1.081-6.245 2.793s-2.559 4.002-2.556 6.383zm5.535-4.15c.846-.006 1.674.245 2.376.723a4.21 4.21 0 0 1 1.552 1.95c.31.793.374 1.662.183 2.493s-.626 1.583-1.25 2.159-1.406.948-2.244 1.068a4.16 4.16 0 0 1-2.45-.4 4.2 4.2 0 0 1-1.795-1.726c-.411-.745-.589-1.598-.509-2.447.088-1.043.562-2.015 1.329-2.723a4.13 4.13 0 0 1 2.808-1.098z" fill="#fdfdfd"/><g fill="#000"><path d="M41.802 41.018h.134a9.34 9.34 0 0 0 6.461-2.709 9.48 9.48 0 0 0 2.801-6.46c.045-1.282-.175-2.559-.645-3.75s-1.18-2.273-2.085-3.174a9.32 9.32 0 0 0-4.779-2.594 9.28 9.28 0 0 0-5.405.52 9.36 9.36 0 0 0-4.206 3.458 9.46 9.46 0 0 0-1.587 5.23 9.26 9.26 0 0 0 .67 3.622c.463 1.15 1.153 2.193 2.027 3.067 1.751 1.776 4.13 2.78 6.615 2.792zm0-18.447a8.91 8.91 0 0 1 6.342 2.594 9.04 9.04 0 0 1 2.664 6.351c.017 2.389-.909 4.687-2.575 6.388a8.91 8.91 0 0 1-6.305 2.683h-.126c-2.361-.008-4.624-.954-6.297-2.632a8.78 8.78 0 0 1-1.939-2.931c-.443-1.099-.661-2.277-.64-3.463a9.09 9.09 0 0 1 2.508-6.223 8.95 8.95 0 0 1 6.075-2.768h.293zm-3.559 13.445a4.38 4.38 0 0 0 2.465-.759 4.43 4.43 0 0 0 1.622-2.019 4.46 4.46 0 0 0 .222-2.587c-.184-.865-.62-1.656-1.253-2.269-.404-.399-.883-.712-1.41-.919a4.16 4.16 0 0 0-1.655-.287c-1.094 0-2.149.415-2.954 1.162s-1.302 1.771-1.392 2.87a4.42 4.42 0 0 0 .195 1.816 4.39 4.39 0 0 0 .912 1.579 4.34 4.34 0 0 0 1.472 1.067c.56.247 1.164.374 1.776.371v-.025zm.159-8.435c.977.006 1.913.4 2.604 1.096a4 4 0 0 1 .897 1.335 4.02 4.02 0 0 1 .301 1.583 3.97 3.97 0 0 1-.29 1.542 3.95 3.95 0 0 1-.864 1.306c-.372.373-.814.667-1.3.864s-1.008.295-1.532.286a3.94 3.94 0 0 1-1.572-.324 3.97 3.97 0 0 1-1.317-.924 4.09 4.09 0 0 1-.84-1.46 4.11 4.11 0 0 1-.182-1.678 3.96 3.96 0 0 1 1.26-2.576 3.9 3.9 0 0 1 2.659-1.034h.176v-.017zm-23.756 4.007c0-1.119-.441-2.191-1.226-2.982a4.17 4.17 0 0 0-5.921 0c-.785.791-1.226 1.864-1.226 2.982s.441 2.191 1.226 2.982a4.17 4.17 0 0 0 5.921 0c.785-.791 1.226-1.864 1.226-2.982z"/><path d="M10.459 36.269a4.58 4.58 0 0 0 1.754-.395 4.61 4.61 0 0 0 1.471-1.041 4.63 4.63 0 0 0 .963-1.529 4.67 4.67 0 0 0-.083-3.55 4.64 4.64 0 0 0-1.034-1.481 4.6 4.6 0 0 0-1.518-.97c-.564-.22-1.166-.326-1.771-.311a4.59 4.59 0 0 0-3.236 1.409 4.66 4.66 0 0 0-1.299 3.301c.019 1.23.522 2.403 1.399 3.259a4.59 4.59 0 0 0 3.278 1.308h.075zm0-8.435a3.72 3.72 0 0 1 2.613 1.071 3.71 3.71 0 0 1 .853 1.238c.197.467.297.97.294 1.478a3.77 3.77 0 0 1-.277 1.479 3.75 3.75 0 0 1-.832 1.25c-.359.356-.785.634-1.254.819s-.97.272-1.473.256a3.66 3.66 0 0 1-1.446-.283c-.458-.191-.873-.474-1.22-.831s-.619-.781-.8-1.246a3.74 3.74 0 0 1-.252-1.462c.002-.978.379-1.917 1.054-2.62a3.74 3.74 0 0 1 2.564-1.15h.176zm27.776-.446a4.16 4.16 0 0 0-2.326.711 4.21 4.21 0 0 0-1.542 1.893c-.317.771-.4 1.619-.238 2.437s.56 1.57 1.146 2.159a4.18 4.18 0 0 0 2.144 1.154 4.16 4.16 0 0 0 2.419-.24c.765-.319 1.419-.86 1.879-1.553a4.24 4.24 0 0 0 .706-2.343c.008-.556-.095-1.108-.303-1.623a4.16 4.16 0 0 0-.906-1.377 4.12 4.12 0 0 0-1.367-.913 4.1 4.1 0 0 0-1.611-.305z"/><path d="M38.243 36.269a4.59 4.59 0 0 0 2.581-.796 4.64 4.64 0 0 0 1.697-2.115 4.68 4.68 0 0 0 .232-2.709c-.193-.906-.65-1.734-1.312-2.376a4.29 4.29 0 0 0-1.474-.981 4.27 4.27 0 0 0-1.742-.301h-.075c-1.131.021-2.215.464-3.041 1.243a4.62 4.62 0 0 0-1.431 2.974 4.73 4.73 0 0 0 .229 1.94c.211.623.549 1.195.993 1.678.431.456.949.819 1.523 1.067s1.193.376 1.818.375zm.159-8.435c.92.006 1.801.376 2.454 1.029a3.81 3.81 0 0 1 1.089 1.947 3.83 3.83 0 0 1-.184 2.227 3.8 3.8 0 0 1-1.394 1.738c-.627.426-1.366.652-2.123.65-.515-.005-1.024-.116-1.495-.326s-.894-.516-1.244-.897c-.364-.401-.64-.876-.81-1.391s-.231-1.062-.178-1.603c.08-.931.508-1.796 1.196-2.422a3.65 3.65 0 0 1 2.514-.952h.176z"/></g><path d="M10.384 15.014a17.39 17.39 0 0 1 2.177-2.32l2.361-2.007a51.66 51.66 0 0 1 5.024-3.517c3.663-2.236 7.822-3.515 12.1-3.72a36.38 36.38 0 0 1 6.247.177c.971.118 1.968.261 3.065.447 1.055.203 2.094.485 3.107.843 3.901 1.5 7.45 3.797 10.425 6.748.131.151.204.344.207.544a.85.85 0 0 1-.193.549c-.127.154-.304.258-.5.293s-.398-.002-.569-.104c-3.902-2.826-7.034-4.589-10.182-5.55a18.07 18.07 0 0 0-2.722-.607 60.04 60.04 0 0 0-2.914-.321 38.83 38.83 0 0 0-5.795-.084 25.56 25.56 0 0 0-10.886 3.121c-1.675.894-3.283 1.889-5.024 3.07a32.68 32.68 0 0 0-4.639 3.56c-.073.085-.162.155-.262.206s-.209.081-.32.089-.224-.006-.33-.041a.85.85 0 0 1-.289-.165c-.085-.074-.154-.163-.204-.264a.86.86 0 0 1-.089-.323c-.008-.112.006-.225.041-.332a.86.86 0 0 1 .164-.291z" fill="#fff"/></g><defs><clipPath id="A"><path fill="#fff" transform="matrix(-1 0 0 1 69 .000488)" d="M0 0h69v77H0z"/></clipPath></defs></svg>